<?xml version="1.0" encoding="UTF-8" standalone="no"?>
<!-- Created with Inkscape (http://www.inkscape.org/) -->

<svg
   width="160"
   height="160"
   id="svg1256"
   sodipodi:version="0.32"
   inkscape:version="1.2.2 (b0a8486541, 2022-12-01)"
   sodipodi:docname="icon.svg"
   inkscape:output_extension="org.inkscape.output.svg.inkscape"
   version="1.1"
   xmlns:inkscape="http://www.inkscape.org/namespaces/inkscape"
   xmlns:sodipodi="http://sodipodi.sourceforge.net/DTD/sodipodi-0.dtd"
   xmlns:xlink="http://www.w3.org/1999/xlink"
   xmlns="http://www.w3.org/2000/svg"
   xmlns:svg="http://www.w3.org/2000/svg"
   xmlns:rdf="http://www.w3.org/1999/02/22-rdf-syntax-ns#"
   xmlns:cc="http://creativecommons.org/ns#"
   xmlns:dc="http://purl.org/dc/elements/1.1/">
  <defs
     id="defs3">
    <inkscape:perspective
       sodipodi:type="inkscape:persp3d"
       inkscape:vp_x="0 : 136 : 1"
       inkscape:vp_y="0 : 1000 : 0"
       inkscape:vp_z="48 : 136 : 1"
       inkscape:persp3d-origin="24 : 128 : 1"
       id="perspective58" />
    <radialGradient
       inkscape:collect="always"
       xlink:href="#linearGradient5060"
       id="radialGradient6719"
       gradientUnits="userSpaceOnUse"
       gradientTransform="matrix(-0.80590615,0,0,0.57220564,-1326.8958,-1637.5905)"
       cx="605.71429"
       cy="486.64789"
       fx="605.71429"
       fy="486.64789"
       r="117.14286" />
    <linearGradient
       inkscape:collect="always"
       id="linearGradient5060">
      <stop
         style="stop-color:black;stop-opacity:1;"
         offset="0"
         id="stop5062" />
      <stop
         style="stop-color:black;stop-opacity:0;"
         offset="1"
         id="stop5064" />
    </linearGradient>
    <radialGradient
       inkscape:collect="always"
       xlink:href="#linearGradient5060"
       id="radialGradient6717"
       gradientUnits="userSpaceOnUse"
       gradientTransform="matrix(0.80590615,0,0,0.57220564,-1909.1338,-1637.5905)"
       cx="605.71429"
       cy="486.64789"
       fx="605.71429"
       fy="486.64789"
       r="117.14286" />
    <linearGradient
       id="linearGradient5048">
      <stop
         style="stop-color:black;stop-opacity:0;"
         offset="0"
         id="stop5050" />
      <stop
         id="stop5056"
         offset="0.5"
         style="stop-color:black;stop-opacity:1;" />
      <stop
         style="stop-color:black;stop-opacity:0;"
         offset="1"
         id="stop5052" />
    </linearGradient>
    <linearGradient
       inkscape:collect="always"
       xlink:href="#linearGradient5048"
       id="linearGradient6715"
       gradientUnits="userSpaceOnUse"
       gradientTransform="matrix(0.80590615,0,0,0.57220564,-1909.2924,-1637.5905)"
       x1="302.85715"
       y1="366.64789"
       x2="302.85715"
       y2="609.50507" />
    <linearGradient
       id="linearGradient12512">
      <stop
         style="stop-color:#ffffff;stop-opacity:1.0000000;"
         offset="0.0000000"
         id="stop12513" />
      <stop
         style="stop-color:#fff520;stop-opacity:0.89108908;"
         offset="0.50000000"
         id="stop12517" />
      <stop
         style="stop-color:#fff300;stop-opacity:0.0000000;"
         offset="1.0000000"
         id="stop12514" />
    </linearGradient>
    <radialGradient
       inkscape:collect="always"
       xlink:href="#linearGradient12512"
       id="radialGradient278"
       gradientUnits="userSpaceOnUse"
       cx="55"
       cy="125"
       fx="55"
       fy="125"
       r="14.375" />
    <linearGradient
       inkscape:collect="always"
       id="linearGradient21644">
      <stop
         style="stop-color:#000000;stop-opacity:1;"
         offset="0"
         id="stop21646" />
      <stop
         style="stop-color:#000000;stop-opacity:0;"
         offset="1"
         id="stop21648" />
    </linearGradient>
    <linearGradient
       inkscape:collect="always"
       id="linearGradient2116">
      <stop
         style="stop-color:#ffffff;stop-opacity:1;"
         offset="0"
         id="stop2118" />
      <stop
         style="stop-color:#ffffff;stop-opacity:0;"
         offset="1"
         id="stop2120" />
    </linearGradient>
    <linearGradient
       id="linearGradient2094">
      <stop
         style="stop-color:#d6e3f0;stop-opacity:1.0000000;"
         offset="0.0000000"
         id="stop2096" />
      <stop
         style="stop-color:#95b1cf;stop-opacity:1.0000000;"
         offset="1.0000000"
         id="stop2098" />
    </linearGradient>
    <linearGradient
       id="linearGradient2803">
      <stop
         id="stop2805"
         offset="0"
         style="stop-color:#ffffff;stop-opacity:1;" />
      <stop
         id="stop2807"
         offset="1.0000000"
         style="stop-color:#cbcbcb;stop-opacity:1.0000000;" />
    </linearGradient>
    <linearGradient
       id="linearGradient2795">
      <stop
         id="stop2797"
         offset="0.0000000"
         style="stop-color:#000000;stop-opacity:0.068627454;" />
      <stop
         id="stop2799"
         offset="1.0000000"
         style="stop-color:#ffffff;stop-opacity:1.0000000;" />
    </linearGradient>
    <linearGradient
       gradientUnits="userSpaceOnUse"
       y2="4.9530048"
       x2="41.219128"
       y1="4.9530048"
       x1="35.433037"
       gradientTransform="matrix(0.254,0,1.0424577e-5,3.7598134,3.0201669,2.7198996)"
       id="linearGradient2801"
       xlink:href="#linearGradient2795"
       inkscape:collect="always" />
    <linearGradient
       gradientUnits="userSpaceOnUse"
       y2="84.287079"
       x2="10.219901"
       y1="93.338043"
       x1="10.496115"
       gradientTransform="matrix(2.262742,0,0,0.44194201,3.1394064,1.6946818)"
       id="linearGradient2813"
       xlink:href="#linearGradient2803"
       inkscape:collect="always" />
    <linearGradient
       inkscape:collect="always"
       xlink:href="#linearGradient2094"
       id="linearGradient2100"
       gradientTransform="matrix(0.95774998,0,0,1.027989,3.1394064,1.9977705)"
       x1="6.5871811"
       y1="22.132999"
       x2="14.511404"
       y2="22.132999"
       gradientUnits="userSpaceOnUse" />
    <linearGradient
       inkscape:collect="always"
       xlink:href="#linearGradient2116"
       id="linearGradient2112"
       gradientTransform="matrix(1.025428,0,0,0.95730299,2.1394067,1.7629238)"
       x1="73.361984"
       y1="26.652197"
       x2="-2.7582901"
       y2="21.270376"
       gradientUnits="userSpaceOnUse" />
    <radialGradient
       inkscape:collect="always"
       xlink:href="#linearGradient21644"
       id="radialGradient21650"
       cx="25.125"
       cy="36.75"
       fx="25.125"
       fy="36.75"
       r="15.75"
       gradientTransform="matrix(1,0,0,0.595238,0,14.875)"
       gradientUnits="userSpaceOnUse" />
  </defs>
  <sodipodi:namedview
     id="base"
     pagecolor="#ffffff"
     bordercolor="#666666"
     borderopacity="0.27843137"
     inkscape:pageopacity="0.0"
     inkscape:pageshadow="2"
     inkscape:zoom="4"
     inkscape:cx="19"
     inkscape:cy="95.875"
     inkscape:current-layer="layer1"
     showgrid="false"
     inkscape:grid-bbox="true"
     inkscape:document-units="px"
     inkscape:window-width="872"
     inkscape:window-height="688"
     inkscape:window-x="80"
     inkscape:window-y="30"
     fill="#ef2929"
     stroke="#cc0000"
     inkscape:showpageshadow="false"
     inkscape:pagecheckerboard="0"
     inkscape:deskcolor="#d1d1d1" />
  <metadata
     id="metadata4">
    <rdf:RDF>
      <cc:Work
         rdf:about="">
        <dc:format>image/svg+xml</dc:format>
        <dc:type
           rdf:resource="http://purl.org/dc/dcmitype/StillImage" />
        <dc:title>Addess Book</dc:title>
        <dc:date />
        <dc:creator>
          <cc:Agent>
            <dc:title>Jakub Steiner</dc:title>
          </cc:Agent>
        </dc:creator>
        <dc:source>http://jimmac.musichall.cz</dc:source>
        <dc:subject>
          <rdf:Bag>
            <rdf:li>address</rdf:li>
            <rdf:li>contact</rdf:li>
            <rdf:li>book</rdf:li>
            <rdf:li>office</rdf:li>
          </rdf:Bag>
        </dc:subject>
        <cc:license
           rdf:resource="http://creativecommons.org/publicdomain/zero/1.0/" />
      </cc:Work>
      <cc:License
         rdf:about="http://creativecommons.org/publicdomain/zero/1.0/">
        <cc:permits
           rdf:resource="http://creativecommons.org/ns#Reproduction" />
        <cc:permits
           rdf:resource="http://creativecommons.org/ns#Distribution" />
        <cc:permits
           rdf:resource="http://creativecommons.org/ns#DerivativeWorks" />
      </cc:License>
    </rdf:RDF>
  </metadata>
  <g
     id="layer1"
     inkscape:label="Layer 1"
     inkscape:groupmode="layer"
     transform="translate(-2.1394065,-2.5696817)">
    <path
       style="color:#000000;display:inline;overflow:visible;visibility:visible;fill:#edd400;fill-opacity:1;fill-rule:evenodd;stroke:#c4a000;stroke-width:1;stroke-linecap:round;stroke-linejoin:round;stroke-miterlimit:4;stroke-dasharray:none;stroke-dashoffset:0;stroke-opacity:1;marker:none;marker-start:none;marker-mid:none;marker-end:none"
       d="m 109.95816,19.218055 h 25.55978 c 2.43427,0 4.25996,0.60852 4.86853,3.651114 l 3.04283,23.732252 c 0.30429,3.651115 -1.2932,4.868152 -4.56424,4.868152 h -29.51547 z"
       id="path21630"
       sodipodi:nodetypes="ccccccc" />
    <path
       sodipodi:nodetypes="ccccccc"
       id="path21632"
       d="m 113.42308,22.61511 h 21.89667 c 1.06083,0 1.64128,0.103827 1.79891,1.107038 l 2.72457,21.975589 c 0.24019,1.483537 0.62795,2.324777 -0.48292,2.374818 h -26.41759 z"
       style="color:#000000;display:inline;overflow:visible;visibility:visible;opacity:0.48538;fill:none;fill-opacity:1;fill-rule:evenodd;stroke:#ffffff;stroke-width:1;stroke-linecap:round;stroke-linejoin:round;stroke-miterlimit:4;stroke-dasharray:none;stroke-dashoffset:0;stroke-opacity:1;marker:none;marker-start:none;marker-mid:none;marker-end:none" />
    <path
       sodipodi:nodetypes="ccccccc"
       id="path21634"
       d="m 118.56459,45.895914 h 25.55978 c 2.43426,0 4.25996,0.60852 4.86853,3.651114 l 3.04283,23.732252 c 0.30429,3.651115 -1.29321,4.868152 -4.56425,4.868152 h -29.51546 z"
       style="color:#000000;display:inline;overflow:visible;visibility:visible;fill:#9db029;fill-opacity:1;fill-rule:evenodd;stroke:#727e0a;stroke-width:1;stroke-linecap:round;stroke-linejoin:round;stroke-miterlimit:4;stroke-dasharray:none;stroke-dashoffset:0;stroke-opacity:1;marker:none;marker-start:none;marker-mid:none;marker-end:none" />
    <path
       style="color:#000000;display:inline;overflow:visible;visibility:visible;opacity:0.48538;fill:none;fill-opacity:1;fill-rule:evenodd;stroke:#ffffff;stroke-width:1;stroke-linecap:round;stroke-linejoin:round;stroke-miterlimit:4;stroke-dasharray:none;stroke-dashoffset:0;stroke-opacity:1;marker:none;marker-start:none;marker-mid:none;marker-end:none"
       d="m 122.02951,49.292969 h 21.89667 c 1.06082,0 1.64128,0.10382 1.7989,1.107038 l 2.72458,21.975589 c 0.24018,1.483537 0.62795,2.324777 -0.48292,2.374818 h -26.4176 z"
       id="path21636"
       sodipodi:nodetypes="ccccccc" />
    <path
       style="color:#000000;display:inline;overflow:visible;visibility:visible;fill:#ef2929;fill-opacity:1;fill-rule:evenodd;stroke:#cc0000;stroke-width:1;stroke-linecap:round;stroke-linejoin:round;stroke-miterlimit:4;stroke-dasharray:none;stroke-dashoffset:0;stroke-opacity:1;marker:none;marker-start:none;marker-mid:none;marker-end:none"
       d="m 120.17589,74.723416 h 29.07393 c 2.76894,0 4.84564,0.755235 5.53788,4.531395 l 3.46119,29.454069 c 0.34611,4.5314 -1.47101,6.04186 -5.19178,6.04186 h -33.57345 z"
       id="path21638"
       sodipodi:nodetypes="ccccccc" />
    <path
       sodipodi:nodetypes="ccccccc"
       id="path21640"
       d="m 124.1172,78.121232 h 24.90718 c 1.20667,0 1.86693,0.132013 2.04623,1.407693 l 3.09916,27.943775 c 0.27321,1.88645 0.71429,2.95616 -0.54931,3.01978 h -30.04967 z"
       style="color:#000000;display:inline;overflow:visible;visibility:visible;opacity:0.48538;fill:none;fill-opacity:1;fill-rule:evenodd;stroke:#ffffff;stroke-width:1;stroke-linecap:round;stroke-linejoin:round;stroke-miterlimit:4;stroke-dasharray:none;stroke-dashoffset:0;stroke-opacity:1;marker:none;marker-start:none;marker-mid:none;marker-end:none" />
    <g
       style="display:inline;stroke-width:0.290492"
       transform="matrix(0.07248199,0,0,0.07183256,143.54135,142.43348)"
       id="g6707">
      <rect
         style="color:#000000;display:inline;overflow:visible;visibility:visible;opacity:0.402062;fill:url(#linearGradient6715);fill-opacity:1;fill-rule:nonzero;stroke:none;stroke-width:0.290492;stroke-linecap:round;stroke-linejoin:miter;stroke-miterlimit:4;stroke-dasharray:none;stroke-dashoffset:0;stroke-opacity:1;marker:none;marker-start:none;marker-mid:none;marker-end:none"
         id="rect6709"
         width="1339.6335"
         height="478.35718"
         x="-1559.2523"
         y="-150.69685" />
      <path
         style="color:#000000;display:inline;overflow:visible;visibility:visible;opacity:0.402062;fill:url(#radialGradient6717);fill-opacity:1;fill-rule:nonzero;stroke:none;stroke-width:0.290492;stroke-linecap:round;stroke-linejoin:miter;stroke-miterlimit:4;stroke-dasharray:none;stroke-dashoffset:0;stroke-opacity:1;marker:none;marker-start:none;marker-mid:none;marker-end:none"
         d="m -219.61876,-150.68038 c 0,0 0,478.33079 0,478.33079 142.874166,0.90045 345.40022,-107.16966 345.40014,-239.196175 0,-132.026537 -159.436816,-239.134595 -345.40014,-239.134615 z"
         id="path6711"
         sodipodi:nodetypes="cccc" />
      <path
         sodipodi:nodetypes="cccc"
         id="path6713"
         d="m -1559.2523,-150.68038 c 0,0 0,478.33079 0,478.33079 -142.8742,0.90045 -345.4002,-107.16966 -345.4002,-239.196175 0,-132.026537 159.4368,-239.134595 345.4002,-239.134615 z"
         style="color:#000000;display:inline;overflow:visible;visibility:visible;opacity:0.402062;fill:url(#radialGradient6719);fill-opacity:1;fill-rule:nonzero;stroke:none;stroke-width:0.290492;stroke-linecap:round;stroke-linejoin:miter;stroke-miterlimit:4;stroke-dasharray:none;stroke-dashoffset:0;stroke-opacity:1;marker:none;marker-start:none;marker-mid:none;marker-end:none" />
    </g>
    <path
       style="color:#000000;display:inline;overflow:visible;visibility:visible;fill:#5b6b94;fill-opacity:1;fill-rule:nonzero;stroke:#364878;stroke-width:1;stroke-linecap:round;stroke-linejoin:round;stroke-miterlimit:4;stroke-dashoffset:0;stroke-opacity:1;marker:none;marker-start:none;marker-mid:none;marker-end:none"
       d="M 17.930891,22.201051 C 18.243417,15.609075 21.39981,11.997 27.275943,11.978971 l 100.959927,-0.30976 c 0.84888,-0.0026 1.95724,0.688975 2.04225,1.5488 l 11.21755,113.452289 -4.52802,0.19494 2.1662,22.1879 c 0.21004,2.1514 -0.62438,3.99069 -3.68847,4.0052 l -105.723745,0.50065 c -8.718464,0.0413 -17.679181,-7.15557 -17.258884,-16.02073 z"
       id="rect1408"
       sodipodi:nodetypes="csssccsssss" />
    <path
       id="path2489"
       d="m 134.15442,123.25475 -100.480041,0.43029 c -5.358424,0.61227 -9.68223,4.80587 -9.68223,10.32691 0,5.52105 4.323806,9.71464 9.68223,10.32692 l 100.480041,0.43028 v -0.21514 c -5.6996,-0.26902 -10.32771,-4.77671 -10.32771,-10.54206 0,-5.76534 4.62811,-10.27303 10.32771,-10.54206 z"
       style="color:#000000;display:inline;overflow:visible;visibility:visible;fill:url(#linearGradient2813);fill-opacity:1;fill-rule:nonzero;stroke:none;stroke-width:1;stroke-linecap:round;stroke-linejoin:round;stroke-miterlimit:4;stroke-dashoffset:0;stroke-opacity:1;marker:none;marker-start:none;marker-mid:none;marker-end:none" />
    <path
       sodipodi:nodetypes="ccccccssc"
       id="path2784"
       d="m 29.371166,12.885867 c -5.87616,0 -9.079426,3.473306 -9.35949,9.849692 L 14.309918,133.41221 c -0.316578,10.59688 6.289141,16.6219 13.124802,18.34912 -14.630926,-5.61326 -12.69448,-30.95249 5.594177,-30.84658 H 139.39844 L 127.99492,14.368616 c -0.0887,-0.828607 -1.1977,-1.482749 -2.04402,-1.482749 z"
       style="color:#000000;display:inline;overflow:visible;visibility:visible;fill:url(#linearGradient2100);fill-opacity:1;fill-rule:nonzero;stroke:none;stroke-width:1;stroke-linecap:round;stroke-linejoin:round;stroke-miterlimit:4;stroke-dashoffset:0;stroke-opacity:1;marker:none;marker-start:none;marker-mid:none;marker-end:none" />
    <rect
       y="16.867365"
       x="29.834188"
       height="101.90871"
       width="6.8851414"
       id="rect2793"
       style="color:#000000;display:inline;overflow:visible;visibility:visible;opacity:0.480447;fill:url(#linearGradient2801);fill-opacity:1;fill-rule:nonzero;stroke:none;stroke-width:1;stroke-linecap:round;stroke-linejoin:round;stroke-miterlimit:4;stroke-dashoffset:0;stroke-opacity:0.608187;marker:none;marker-start:none;marker-mid:none;marker-end:none"
       transform="matrix(1,0,-0.03583008,0.9993579,0,0)" />
    <path
       style="color:#000000;display:inline;overflow:visible;visibility:visible;fill:none;fill-opacity:1;fill-rule:nonzero;stroke:url(#linearGradient2112);stroke-width:1;stroke-linecap:round;stroke-linejoin:miter;stroke-miterlimit:20;stroke-dasharray:none;stroke-dashoffset:0;stroke-opacity:1;marker:none;marker-start:none;marker-mid:none;marker-end:none"
       d="m 30.016995,14.679938 c -5.796943,0 -8.044177,2.520327 -8.320465,8.792154 L 17.224961,126.36039 c 3.213049,-5.53091 8.398481,-7.51373 16.704736,-7.51373 H 137.03957 L 127.3112,16.138373 c -0.0773,-0.816011 -1.18155,-1.458435 -2.01646,-1.458435 z"
       id="path2104"
       sodipodi:nodetypes="cccscssc" />
    <g
       aria-label="man"
       transform="scale(0.98094948,1.0194205)"
       id="text428"
       style="font-weight:bold;font-size:40.9975px;line-height:125%;font-family:'Nimbus Sans';-inkscape-font-specification:'Nimbus Sans Bold';letter-spacing:0px;word-spacing:0px;fill:#000080;stroke:#000080;stroke-width:1px">
      <path
         d="m 43.082702,31.564554 v 22.138651 h 5.739651 v -13.28319 c 0,-2.746833 1.47591,-4.345735 3.93576,-4.345735 1.926882,0 3.11581,1.106932 3.11581,2.869825 v 14.7591 h 5.73965 v -13.28319 c 0,-2.705835 1.47591,-4.345735 3.93576,-4.345735 1.926883,0 3.11581,1.106932 3.11581,2.869825 v 14.7591 h 5.73965 V 38.04216 c 0,-4.304738 -2.62384,-6.846583 -7.05157,-6.846583 -2.828827,0 -4.75571,0.98394 -6.477605,3.2798 -1.065935,-2.090873 -3.2798,-3.2798 -6.026633,-3.2798 -2.541845,0 -4.181745,0.81995 -6.06763,3.11581 v -2.746833 z"
         id="path341" />
      <path
         d="M 98.55232,53.006248 C 97.56838,52.063305 97.2404,51.407345 97.2404,50.300412 v -12.29925 c 0,-4.509725 -3.074812,-6.805585 -9.060447,-6.805585 -5.985636,0 -9.101446,2.541845 -9.470423,7.666533 h 5.534662 c 0.286983,-2.29586 1.229925,-3.033815 4.058753,-3.033815 2.213865,0 3.320798,0.737955 3.320798,2.213865 0,0.737955 -0.368978,1.352917 -0.98394,1.721895 -0.778953,0.409975 -0.778953,0.409975 -3.60778,0.860947 l -2.295861,0.409975 c -4.386732,0.737955 -6.518602,2.992818 -6.518602,6.969575 0,3.976758 2.664837,6.641596 6.72359,6.641596 2.45985,0 4.673715,-1.024938 6.72359,-3.156808 0,1.14793 0.122993,1.557905 0.65596,2.213865 h 6.23162 z m -6.928577,-8.199501 c 0,3.320798 -1.6399,5.206683 -4.550723,5.206683 -1.926883,0 -3.11581,-1.024938 -3.11581,-2.664838 0,-1.721895 0.901945,-2.541845 3.2798,-3.033815 L 89.20489,43.9458 c 1.516908,-0.286983 1.762893,-0.368978 2.418853,-0.696958 z"
         id="path343" />
      <path
         d="m 102.44707,31.564554 v 22.138651 h 5.73965 v -13.28319 c 0,-2.62384 1.80389,-4.345735 4.63272,-4.345735 2.45985,0 3.68978,1.352917 3.68978,3.976757 v 13.652168 h 5.73965 V 38.86211 c 0,-4.919701 -2.66484,-7.666533 -7.42055,-7.666533 -2.99282,0 -5.0017,1.065935 -6.6416,3.566782 v -3.197805 z"
         id="path345" />
    </g>
  </g>
</svg>
